<mxfile host="app.diagrams.net" agent="Mozilla/5.0 (Windows NT 10.0; Win64; x64) AppleWebKit/537.36 (KHTML, like Gecko) Chrome/137.0.0.0 Safari/537.36" version="27.1.5">
  <diagram name="Página-1" id="YSdaxUgnyIHfcuDy37Mi">
    <mxGraphModel dx="1226" dy="1851" grid="1" gridSize="10" guides="1" tooltips="1" connect="1" arrows="1" fold="1" page="1" pageScale="1" pageWidth="827" pageHeight="1169" math="0" shadow="0">
      <root>
        <mxCell id="0" />
        <mxCell id="1" parent="0" />
        <mxCell id="tCnbYIX6PGGbyw3TIFU_-8" value="" style="rhombus;whiteSpace=wrap;html=1;" parent="1" vertex="1">
          <mxGeometry x="335" y="246.5" width="100" height="92" as="geometry" />
        </mxCell>
        <mxCell id="tCnbYIX6PGGbyw3TIFU_-13" value="" style="points=[[0.145,0.145,0],[0.5,0,0],[0.855,0.145,0],[1,0.5,0],[0.855,0.855,0],[0.5,1,0],[0.145,0.855,0],[0,0.5,0]];shape=mxgraph.bpmn.event;html=1;verticalLabelPosition=bottom;labelBackgroundColor=#ffffff;verticalAlign=top;align=center;perimeter=ellipsePerimeter;outlineConnect=0;aspect=fixed;outline=end;symbol=terminate;fillColor=#1ba1e2;fontColor=#ffffff;strokeColor=#006EAF;" parent="1" vertex="1">
          <mxGeometry x="532.5" y="275" width="35" height="35" as="geometry" />
        </mxCell>
        <mxCell id="tCnbYIX6PGGbyw3TIFU_-14" value="Ciano" style="text;html=1;align=center;verticalAlign=middle;resizable=0;points=[];autosize=1;strokeColor=none;fillColor=none;" parent="1" vertex="1">
          <mxGeometry x="525" y="307.5" width="50" height="30" as="geometry" />
        </mxCell>
        <mxCell id="tCnbYIX6PGGbyw3TIFU_-21" value="" style="shape=collate;whiteSpace=wrap;html=1;rotation=90;" parent="1" vertex="1">
          <mxGeometry x="345" y="30" width="80" height="80" as="geometry" />
        </mxCell>
        <mxCell id="tCnbYIX6PGGbyw3TIFU_-22" value="Saldo Energético" style="text;html=1;align=center;verticalAlign=middle;resizable=0;points=[];autosize=1;strokeColor=none;fillColor=none;" parent="1" vertex="1">
          <mxGeometry x="335" width="110" height="30" as="geometry" />
        </mxCell>
        <mxCell id="tCnbYIX6PGGbyw3TIFU_-28" value="" style="points=[[0.145,0.145,0],[0.5,0,0],[0.855,0.145,0],[1,0.5,0],[0.855,0.855,0],[0.5,1,0],[0.145,0.855,0],[0,0.5,0]];shape=mxgraph.bpmn.event;html=1;verticalLabelPosition=bottom;labelBackgroundColor=#ffffff;verticalAlign=top;align=center;perimeter=ellipsePerimeter;outlineConnect=0;aspect=fixed;outline=end;symbol=terminate;fillColor=#e51400;fontColor=#ffffff;strokeColor=light-dark(#B20000, #f50000);" parent="1" vertex="1">
          <mxGeometry x="367.5" y="670" width="35" height="35" as="geometry" />
        </mxCell>
        <mxCell id="tCnbYIX6PGGbyw3TIFU_-30" value="" style="endArrow=classic;html=1;rounded=0;exitX=1.006;exitY=0.503;exitDx=0;exitDy=0;exitPerimeter=0;entryX=0;entryY=0.5;entryDx=0;entryDy=0;entryPerimeter=0;" parent="1" target="tCnbYIX6PGGbyw3TIFU_-13" edge="1">
          <mxGeometry width="50" height="50" relative="1" as="geometry">
            <mxPoint x="435" y="291.99999999999994" as="sourcePoint" />
            <mxPoint x="550" y="290" as="targetPoint" />
          </mxGeometry>
        </mxCell>
        <mxCell id="tCnbYIX6PGGbyw3TIFU_-31" value="" style="points=[[0.145,0.145,0],[0.5,0,0],[0.855,0.145,0],[1,0.5,0],[0.855,0.855,0],[0.5,1,0],[0.145,0.855,0],[0,0.5,0]];shape=mxgraph.bpmn.event;html=1;verticalLabelPosition=bottom;labelBackgroundColor=#ffffff;verticalAlign=top;align=center;perimeter=ellipsePerimeter;outlineConnect=0;aspect=fixed;outline=end;symbol=terminate;fillColor=#e3c800;fontColor=#000000;strokeColor=light-dark(#B09500,#FFFF33);" parent="1" vertex="1">
          <mxGeometry x="532.5" y="559.5" width="35" height="35" as="geometry" />
        </mxCell>
        <mxCell id="tCnbYIX6PGGbyw3TIFU_-39" value="[Yes]" style="text;html=1;align=center;verticalAlign=middle;resizable=0;points=[];autosize=1;strokeColor=none;fillColor=none;" parent="1" vertex="1">
          <mxGeometry x="460" y="262" width="50" height="30" as="geometry" />
        </mxCell>
        <mxCell id="tCnbYIX6PGGbyw3TIFU_-40" value="[No&lt;span style=&quot;background-color: transparent; color: light-dark(rgb(0, 0, 0), rgb(255, 255, 255));&quot;&gt;]&lt;/span&gt;" style="text;html=1;align=center;verticalAlign=middle;resizable=0;points=[];autosize=1;strokeColor=none;fillColor=none;rotation=-90;" parent="1" vertex="1">
          <mxGeometry x="345" y="350" width="50" height="30" as="geometry" />
        </mxCell>
        <mxCell id="tCnbYIX6PGGbyw3TIFU_-41" value="" style="endArrow=none;html=1;rounded=0;" parent="1" edge="1">
          <mxGeometry width="50" height="50" relative="1" as="geometry">
            <mxPoint y="428" as="sourcePoint" />
            <mxPoint y="38" as="targetPoint" />
          </mxGeometry>
        </mxCell>
        <mxCell id="tCnbYIX6PGGbyw3TIFU_-42" value="" style="endArrow=none;html=1;rounded=0;" parent="1" edge="1">
          <mxGeometry width="50" height="50" relative="1" as="geometry">
            <mxPoint x="820" y="428" as="sourcePoint" />
            <mxPoint x="820" y="38" as="targetPoint" />
          </mxGeometry>
        </mxCell>
        <mxCell id="tCnbYIX6PGGbyw3TIFU_-43" value="" style="endArrow=none;html=1;rounded=0;" parent="1" edge="1">
          <mxGeometry width="50" height="50" relative="1" as="geometry">
            <mxPoint y="428" as="sourcePoint" />
            <mxPoint y="760" as="targetPoint" />
          </mxGeometry>
        </mxCell>
        <mxCell id="tCnbYIX6PGGbyw3TIFU_-44" value="" style="endArrow=none;html=1;rounded=0;" parent="1" edge="1">
          <mxGeometry width="50" height="50" relative="1" as="geometry">
            <mxPoint x="7" y="-1.1799999999999997" as="sourcePoint" />
            <mxPoint x="827" y="-1.1799999999999997" as="targetPoint" />
          </mxGeometry>
        </mxCell>
        <mxCell id="QtvwwAHAamXn7S29y01x-2" value="Leitura do saldo energético" style="rounded=0;whiteSpace=wrap;html=1;" vertex="1" parent="1">
          <mxGeometry x="325" y="145" width="120" height="60" as="geometry" />
        </mxCell>
        <mxCell id="QtvwwAHAamXn7S29y01x-5" value="&lt;font style=&quot;font-size: 11px;&quot;&gt;Saldo &amp;gt;3000 W&lt;/font&gt;" style="text;html=1;align=center;verticalAlign=middle;resizable=0;points=[];autosize=1;strokeColor=none;fillColor=none;" vertex="1" parent="1">
          <mxGeometry x="335" y="277.5" width="100" height="30" as="geometry" />
        </mxCell>
        <mxCell id="QtvwwAHAamXn7S29y01x-6" value="" style="rhombus;whiteSpace=wrap;html=1;" vertex="1" parent="1">
          <mxGeometry x="335" y="391" width="100" height="92" as="geometry" />
        </mxCell>
        <mxCell id="QtvwwAHAamXn7S29y01x-7" value="&lt;font style=&quot;font-size: 11px;&quot;&gt;Saldo &amp;gt;1000 W&lt;/font&gt;" style="text;html=1;align=center;verticalAlign=middle;resizable=0;points=[];autosize=1;strokeColor=none;fillColor=none;" vertex="1" parent="1">
          <mxGeometry x="330" y="422" width="100" height="30" as="geometry" />
        </mxCell>
        <mxCell id="QtvwwAHAamXn7S29y01x-8" value="" style="rhombus;whiteSpace=wrap;html=1;" vertex="1" parent="1">
          <mxGeometry x="335" y="531" width="100" height="92" as="geometry" />
        </mxCell>
        <mxCell id="QtvwwAHAamXn7S29y01x-9" value="&lt;font style=&quot;font-size: 11px;&quot;&gt;Saldo &amp;gt;500 W&lt;/font&gt;" style="text;html=1;align=center;verticalAlign=middle;resizable=0;points=[];autosize=1;strokeColor=none;fillColor=none;" vertex="1" parent="1">
          <mxGeometry x="340" y="562" width="90" height="30" as="geometry" />
        </mxCell>
        <mxCell id="QtvwwAHAamXn7S29y01x-13" value="" style="endArrow=classic;html=1;rounded=0;" edge="1" parent="1" source="tCnbYIX6PGGbyw3TIFU_-8" target="QtvwwAHAamXn7S29y01x-6">
          <mxGeometry width="50" height="50" relative="1" as="geometry">
            <mxPoint x="384.5" y="338.5" as="sourcePoint" />
            <mxPoint x="384.5" y="388.5" as="targetPoint" />
          </mxGeometry>
        </mxCell>
        <mxCell id="QtvwwAHAamXn7S29y01x-14" value="" style="endArrow=classic;html=1;rounded=0;entryX=0;entryY=0.5;entryDx=0;entryDy=0;entryPerimeter=0;" edge="1" parent="1" source="QtvwwAHAamXn7S29y01x-6" target="QtvwwAHAamXn7S29y01x-24">
          <mxGeometry width="50" height="50" relative="1" as="geometry">
            <mxPoint x="435" y="436.5" as="sourcePoint" />
            <mxPoint x="530" y="437" as="targetPoint" />
          </mxGeometry>
        </mxCell>
        <mxCell id="QtvwwAHAamXn7S29y01x-15" value="[Yes]" style="text;html=1;align=center;verticalAlign=middle;resizable=0;points=[];autosize=1;strokeColor=none;fillColor=none;" vertex="1" parent="1">
          <mxGeometry x="460" y="412" width="50" height="30" as="geometry" />
        </mxCell>
        <mxCell id="QtvwwAHAamXn7S29y01x-16" value="[No&lt;span style=&quot;background-color: transparent; color: light-dark(rgb(0, 0, 0), rgb(255, 255, 255));&quot;&gt;]&lt;/span&gt;" style="text;html=1;align=center;verticalAlign=middle;resizable=0;points=[];autosize=1;strokeColor=none;fillColor=none;rotation=-90;" vertex="1" parent="1">
          <mxGeometry x="345" y="490" width="50" height="30" as="geometry" />
        </mxCell>
        <mxCell id="QtvwwAHAamXn7S29y01x-17" value="" style="endArrow=classic;html=1;rounded=0;" edge="1" parent="1" source="QtvwwAHAamXn7S29y01x-6" target="QtvwwAHAamXn7S29y01x-8">
          <mxGeometry width="50" height="50" relative="1" as="geometry">
            <mxPoint x="384.5" y="483" as="sourcePoint" />
            <mxPoint x="384.5" y="533" as="targetPoint" />
          </mxGeometry>
        </mxCell>
        <mxCell id="QtvwwAHAamXn7S29y01x-18" value="" style="endArrow=classic;html=1;rounded=0;entryX=0;entryY=0.5;entryDx=0;entryDy=0;entryPerimeter=0;" edge="1" parent="1" source="QtvwwAHAamXn7S29y01x-8" target="tCnbYIX6PGGbyw3TIFU_-31">
          <mxGeometry width="50" height="50" relative="1" as="geometry">
            <mxPoint x="432.5" y="576.5" as="sourcePoint" />
            <mxPoint x="520" y="580" as="targetPoint" />
          </mxGeometry>
        </mxCell>
        <mxCell id="QtvwwAHAamXn7S29y01x-19" value="[Yes]" style="text;html=1;align=center;verticalAlign=middle;resizable=0;points=[];autosize=1;strokeColor=none;fillColor=none;" vertex="1" parent="1">
          <mxGeometry x="460" y="550" width="50" height="30" as="geometry" />
        </mxCell>
        <mxCell id="QtvwwAHAamXn7S29y01x-20" value="[No&lt;span style=&quot;background-color: transparent; color: light-dark(rgb(0, 0, 0), rgb(255, 255, 255));&quot;&gt;]&lt;/span&gt;" style="text;html=1;align=center;verticalAlign=middle;resizable=0;points=[];autosize=1;strokeColor=none;fillColor=none;rotation=-90;" vertex="1" parent="1">
          <mxGeometry x="345" y="630" width="50" height="30" as="geometry" />
        </mxCell>
        <mxCell id="QtvwwAHAamXn7S29y01x-21" value="" style="endArrow=classic;html=1;rounded=0;" edge="1" parent="1" source="QtvwwAHAamXn7S29y01x-8" target="tCnbYIX6PGGbyw3TIFU_-28">
          <mxGeometry width="50" height="50" relative="1" as="geometry">
            <mxPoint x="384.5" y="623" as="sourcePoint" />
            <mxPoint x="384.5" y="673" as="targetPoint" />
          </mxGeometry>
        </mxCell>
        <mxCell id="QtvwwAHAamXn7S29y01x-22" value="" style="endArrow=classic;html=1;rounded=0;exitX=0.5;exitY=1;exitDx=0;exitDy=0;" edge="1" parent="1" source="QtvwwAHAamXn7S29y01x-2">
          <mxGeometry width="50" height="50" relative="1" as="geometry">
            <mxPoint x="380" y="210" as="sourcePoint" />
            <mxPoint x="384.5" y="246.5" as="targetPoint" />
          </mxGeometry>
        </mxCell>
        <mxCell id="QtvwwAHAamXn7S29y01x-23" value="" style="endArrow=classic;html=1;rounded=0;entryX=0.5;entryY=0;entryDx=0;entryDy=0;exitX=0.503;exitY=0.497;exitDx=0;exitDy=0;exitPerimeter=0;" edge="1" parent="1" source="tCnbYIX6PGGbyw3TIFU_-21" target="QtvwwAHAamXn7S29y01x-2">
          <mxGeometry width="50" height="50" relative="1" as="geometry">
            <mxPoint x="384.5" y="110" as="sourcePoint" />
            <mxPoint x="384.5" y="160" as="targetPoint" />
          </mxGeometry>
        </mxCell>
        <mxCell id="QtvwwAHAamXn7S29y01x-24" value="" style="points=[[0.145,0.145,0],[0.5,0,0],[0.855,0.145,0],[1,0.5,0],[0.855,0.855,0],[0.5,1,0],[0.145,0.855,0],[0,0.5,0]];shape=mxgraph.bpmn.event;html=1;verticalLabelPosition=bottom;labelBackgroundColor=#ffffff;verticalAlign=top;align=center;perimeter=ellipsePerimeter;outlineConnect=0;aspect=fixed;outline=end;symbol=terminate;fillColor=light-dark(#0050EF,#2B17FF);fontColor=#ffffff;strokeColor=light-dark(#001DBC,#2713FF);" vertex="1" parent="1">
          <mxGeometry x="532.5" y="417" width="35" height="35" as="geometry" />
        </mxCell>
        <mxCell id="QtvwwAHAamXn7S29y01x-25" value="Azul" style="text;html=1;align=center;verticalAlign=middle;resizable=0;points=[];autosize=1;strokeColor=none;fillColor=none;" vertex="1" parent="1">
          <mxGeometry x="525" y="452" width="50" height="30" as="geometry" />
        </mxCell>
        <mxCell id="QtvwwAHAamXn7S29y01x-26" value="Amarelo" style="text;html=1;align=center;verticalAlign=middle;resizable=0;points=[];autosize=1;strokeColor=none;fillColor=none;" vertex="1" parent="1">
          <mxGeometry x="532.5" y="600" width="70" height="30" as="geometry" />
        </mxCell>
      </root>
    </mxGraphModel>
  </diagram>
</mxfile>
